<svg xmlns="http://www.w3.org/2000/svg" width="48" height="59.769" viewBox="0 0 48 59.769"><path d="M21.4,86.673,1.007,66.28a3.584,3.584,0,0,1,0-5.083L4.4,57.807a3.584,3.584,0,0,1,5.083,0L23.935,72.263,38.39,57.807a3.584,3.584,0,0,1,5.083,0l3.419,3.374a3.584,3.584,0,0,1,0,5.083L26.5,86.658a3.589,3.589,0,0,1-5.1.015Zm5.1,28.791L46.893,95.071a3.584,3.584,0,0,0,0-5.083L43.5,86.6a3.584,3.584,0,0,0-5.083,0l-14.47,14.44L9.495,86.583a3.584,3.584,0,0,0-5.083,0l-3.4,3.389a3.584,3.584,0,0,0,0,5.083L21.4,115.449A3.589,3.589,0,0,0,26.5,115.464Z" transform="translate(0.05 -56.75)" fill="#fff"/></svg>