<svg xmlns="http://www.w3.org/2000/svg" width="64" height="56" viewBox="0 0 64 56"><path d="M2.286,70.286H61.714A2.286,2.286,0,0,0,64,68V62.286A2.286,2.286,0,0,0,61.714,60H2.286A2.286,2.286,0,0,0,0,62.286V68A2.286,2.286,0,0,0,2.286,70.286Zm0,22.857H61.714A2.286,2.286,0,0,0,64,90.857V85.143a2.286,2.286,0,0,0-2.286-2.286H2.286A2.286,2.286,0,0,0,0,85.143v5.714A2.286,2.286,0,0,0,2.286,93.143Zm0,22.857H61.714A2.286,2.286,0,0,0,64,113.714V108a2.286,2.286,0,0,0-2.286-2.286H2.286A2.286,2.286,0,0,0,0,108v5.714A2.286,2.286,0,0,0,2.286,116Z" transform="translate(0 -60)" fill="#fff"/></svg>