<svg xmlns="http://www.w3.org/2000/svg" viewBox="0 0 786 786"><defs><style>.cls-1{fill:#02a7c2;}.cls-2{fill:#007090;opacity:0.5;}.cls-3{fill:#eaebed;}.cls-4{fill:#3b7aa7;}</style></defs><title>Asset 16</title><g id="Layer_2" data-name="Layer 2"><g id="Layer_1-2" data-name="Layer 1"><rect class="cls-1" width="786" height="786"/><polygon class="cls-2" points="516.45 786 0 786 0 525.46 142.47 286.45 620.7 611.47 516.45 786"/><rect class="cls-2" x="563.84" y="396.74" width="53.62" height="144.95" transform="translate(323.54 -236.25) rotate(30.8)"/><path class="cls-3" d="M554.2,509.05c67.34-33.73,111-88,111-149.28,0-102.3-121.89-185.24-272.24-185.24S120.76,257.47,120.76,359.77,242.65,545,393,545a399,399,0,0,0,49.28-3L620.7,611.47Z"/><path class="cls-4" d="M225.3,285.07V342H210.77V318.9h-19V342H177.22V285.07h14.57v22.07h19V285.07Z"/><path class="cls-4" d="M265.65,332.53H247.37L244.48,342H228.82l20.74-56.88h13.83L284.25,342H268.54ZM262,320.74l-5.55-18-5.5,18Z"/><path class="cls-4" d="M330.57,317.61a13.13,13.13,0,0,1,2.15,7.38q0,17-21.75,17H287.88V285.07h20.66q11,0,17,4t6,11.85a14.82,14.82,0,0,1-1.83,7.42,11,11,0,0,1-5.94,4.81A10.85,10.85,0,0,1,330.57,317.61Zm-28.12-20.74v11.84h6c3.15,0,5.36-.45,6.64-1.33a4.88,4.88,0,0,0,1.91-4.3q0-3.31-2-4.76t-6.45-1.45Zm14,31.78a5,5,0,0,0,1.74-3.93q0-6.24-6.64-6.25h-9.1v11.72H311C313.47,330.19,315.29,329.68,316.45,328.65Z"/><path class="cls-4" d="M377.76,330.19V342h-38V285.07h14.57v45.12Z"/><path class="cls-4" d="M416.63,332.53H398.35L395.46,342H379.79l20.75-56.88h13.82L435.22,342h-15.7ZM413,320.74l-5.55-18-5.51,18Z"/><path class="cls-4" d="M500.93,342H486.32V331.21l1.4-28.91L474.64,342h-9.53L452,302.3l1.45,28.91V342H438.86V285.07H458l11.83,37.74,11.84-37.74h19.22Z"/><path class="cls-4" d="M554.6,329.51a23.37,23.37,0,0,1-8.91,9.8,24.8,24.8,0,0,1-13,3.42,25.12,25.12,0,0,1-13.14-3.42,23.18,23.18,0,0,1-8.91-9.8,33.14,33.14,0,0,1-3.18-14.94v-2.08a33.14,33.14,0,0,1,3.18-14.94,23.38,23.38,0,0,1,8.89-9.82,26.49,26.49,0,0,1,26.11,0,23.51,23.51,0,0,1,9,9.82,32.75,32.75,0,0,1,3.22,14.94v2.08A33,33,0,0,1,554.6,329.51Zm-14.36-29.14a8.54,8.54,0,0,0-7.63-4.16q-10.27,0-10.28,16.21v2.15q0,7.89,2.6,12.09a8.54,8.54,0,0,0,7.75,4.19,8.42,8.42,0,0,0,7.58-4.25q2.65-4.26,2.66-12v-2.15Q542.92,304.53,540.24,300.37Z"/><path class="cls-4" d="M573.93,314.78a21.08,21.08,0,0,1-6.85-5.84,13.77,13.77,0,0,1-2.68-8.55,13.4,13.4,0,0,1,2.87-8.56,18.31,18.31,0,0,1,8-5.59,31.75,31.75,0,0,1,11.45-1.95,27.36,27.36,0,0,1,11.05,2.11,17.52,17.52,0,0,1,7.6,6.11,16.43,16.43,0,0,1,2.75,9.56H593.54a5.93,5.93,0,0,0-1.85-4.59,7.66,7.66,0,0,0-5.37-1.7,11,11,0,0,0-4,.66,6,6,0,0,0-2.54,1.74,3.71,3.71,0,0,0-.86,2.36c0,1.43.83,2.66,2.49,3.67a37.39,37.39,0,0,0,7.59,3.21q9.42,3,14.24,7.57A15.18,15.18,0,0,1,608,326.56a14.7,14.7,0,0,1-2.62,8.79,16.12,16.12,0,0,1-7.38,5.5,30.59,30.59,0,0,1-11.22,1.88,32.86,32.86,0,0,1-11.77-2.09,20,20,0,0,1-8.93-6.54,17.78,17.78,0,0,1-3.44-11.18h14.65a10.19,10.19,0,0,0,1,5,5.67,5.67,0,0,0,3.1,2.6,15.72,15.72,0,0,0,5.35.76,7.8,7.8,0,0,0,5-1.34,4.15,4.15,0,0,0,1.63-3.3,5.37,5.37,0,0,0-.71-2.84,7.27,7.27,0,0,0-2.75-2.28,38.82,38.82,0,0,0-6.12-2.5A63.12,63.12,0,0,1,573.93,314.78Z"/><path class="cls-4" d="M230.15,394.78v10.66h21.93v11.75H230.15v12.16h26v12.2H215v-59h41.25v12.24Z"/><path class="cls-4" d="M271.41,413.36a21.89,21.89,0,0,1-7.11-6.06,14.32,14.32,0,0,1-2.78-8.87,13.86,13.86,0,0,1,3-8.88,18.89,18.89,0,0,1,8.25-5.79,32.87,32.87,0,0,1,11.87-2,28.44,28.44,0,0,1,11.47,2.19,18,18,0,0,1,7.88,6.34,17,17,0,0,1,2.86,9.91H291.76a6.14,6.14,0,0,0-1.93-4.76,7.94,7.94,0,0,0-5.57-1.77,11.4,11.4,0,0,0-4.18.69,6.12,6.12,0,0,0-2.63,1.81,3.8,3.8,0,0,0-.89,2.45q0,2.22,2.57,3.81a39.47,39.47,0,0,0,7.88,3.32q9.76,3.16,14.78,7.86a15.78,15.78,0,0,1,5,12,15.17,15.17,0,0,1-2.71,9.12,16.72,16.72,0,0,1-7.66,5.71,31.67,31.67,0,0,1-11.64,1.95,34.09,34.09,0,0,1-12.21-2.17,20.75,20.75,0,0,1-9.26-6.79,18.39,18.39,0,0,1-3.57-11.59h15.2A10.56,10.56,0,0,0,276,427a5.89,5.89,0,0,0,3.22,2.69,16.25,16.25,0,0,0,5.55.79c2.36,0,4.09-.46,5.21-1.39a4.33,4.33,0,0,0,1.69-3.43,5.53,5.53,0,0,0-.74-2.94,7.57,7.57,0,0,0-2.85-2.37,41,41,0,0,0-6.34-2.59A65,65,0,0,1,271.41,413.36Z"/><path class="cls-4" d="M349.79,385.19a19.48,19.48,0,0,1,8.11,7.34,20,20,0,0,1,2.83,10.6,18.08,18.08,0,0,1-2.83,10.05,18.72,18.72,0,0,1-8.09,6.81,28.9,28.9,0,0,1-12.26,2.43h-8.67v19.13H313.76v-59h23.79A27,27,0,0,1,349.79,385.19Zm-6.32,23.06a6.7,6.7,0,0,0,1.94-5,9.15,9.15,0,0,0-2-6,7.22,7.22,0,0,0-5.88-2.39h-8.67v15.36h8.67Q341.53,410.14,343.47,408.25Z"/><path class="cls-4" d="M395.26,431.78h-19l-3,9.77H357.05l21.52-59h14.34l21.64,59H398.26Zm-3.77-12.24-5.75-18.64L380,419.54Z"/><path class="cls-4" d="M453.14,441.55l-19.7-34.33v34.33H418.32v-59h15.12l19.65,34.29V382.54h15.08v59Zm5.08-69.16a10.55,10.55,0,0,1-3.36,4.21,8,8,0,0,1-4.89,1.6,10.05,10.05,0,0,1-3.12-.44,22.29,22.29,0,0,1-3.12-1.34,27,27,0,0,0-2.73-1.18,7.46,7.46,0,0,0-2.37-.36,2.89,2.89,0,0,0-2.15.83,3.57,3.57,0,0,0-.81,2.57l-7.95-.4a12.78,12.78,0,0,1,1.22-5.45,11.05,11.05,0,0,1,3.36-4.24,7.83,7.83,0,0,1,4.83-1.62,8.69,8.69,0,0,1,2.65.41c.85.27,1.93.69,3.22,1.25a29.42,29.42,0,0,0,2.94,1.18,8.11,8.11,0,0,0,2.53.4,3,3,0,0,0,2.23-.83,3.43,3.43,0,0,0,.85-2.57l7.87.41A13.19,13.19,0,0,1,458.22,372.39Z"/><path class="cls-4" d="M523.77,428.64a24,24,0,0,1-9.24,10.17A25.66,25.66,0,0,1,501,442.36a26,26,0,0,1-13.64-3.55,23.91,23.91,0,0,1-9.24-10.17,34.36,34.36,0,0,1-3.3-15.5V411a34.36,34.36,0,0,1,3.3-15.5,24.11,24.11,0,0,1,9.22-10.19,27.48,27.48,0,0,1,27.09,0,24.39,24.39,0,0,1,9.29,10.19A34.1,34.1,0,0,1,527.1,411v2.15A34.1,34.1,0,0,1,523.77,428.64Zm-14.89-30.23a8.87,8.87,0,0,0-7.92-4.32q-10.66,0-10.66,16.82v2.23q0,8.19,2.69,12.54A8.85,8.85,0,0,0,501,430a8.75,8.75,0,0,0,7.86-4.42c1.84-2.94,2.76-7.11,2.76-12.48v-2.23Q511.66,402.72,508.88,398.41Z"/><path class="cls-4" d="M573.22,429.35v12.2H533.78v-59H548.9v46.81Z"/></g></g></svg>