<svg xmlns="http://www.w3.org/2000/svg" viewBox="0 0 787.03 786"><defs><style>.cls-1{fill:#a3bac3;}.cls-2,.cls-5{fill:#007090;}.cls-2{opacity:0.5;}.cls-3{fill:#02a7c2;}.cls-4{fill:none;stroke:#007090;stroke-miterlimit:10;stroke-width:5px;}.cls-6{fill:#22425c;}</style></defs><title>Asset 15</title><g id="Layer_2" data-name="Layer 2"><g id="Layer_1-2" data-name="Layer 1"><rect class="cls-1" x="1.03" width="786" height="786"/><polygon class="cls-2" points="424.07 786 1.03 786 0 611.66 207.09 264.24 596.66 496.45 424.07 786"/><circle class="cls-3" cx="392.07" cy="395.93" r="211.48"/><line class="cls-4" x1="387.39" y1="395.93" x2="417.09" y2="294.49"/><polygon class="cls-5" points="428.25 308.08 429.54 251.97 400.37 299.91 428.25 308.08"/><path class="cls-5" d="M394,165.3c-125.75,0-227.7,101.94-227.7,227.7S268.28,620.7,394,620.7,621.73,518.76,621.73,393,519.79,165.3,394,165.3ZM514,558.24a165.7,165.7,0,0,0-241.2-.86,203.93,203.93,0,0,1-83-164.38c0-112.79,91.43-204.22,204.22-204.22S598.26,280.21,598.26,393A203.91,203.91,0,0,1,514,558.24Z"/><path class="cls-6" d="M357,420.81v.63H341.4l-9.57-19.22h-6.76v19.22H310.5V364.56h22.93a30.56,30.56,0,0,1,11.52,2,16.27,16.27,0,0,1,7.56,5.84,16.07,16.07,0,0,1,2.68,9.37q0,6.56-2.48,10.33a18,18,0,0,1-7.29,6.15Zm-31.95-30.43h8.36a7.4,7.4,0,0,0,5.37-1.77,7,7,0,0,0,1.82-5.22,6.92,6.92,0,0,0-1.88-5.19,7.25,7.25,0,0,0-5.31-1.84h-8.36Z"/><path class="cls-6" d="M397.92,367.12a18.77,18.77,0,0,1,7.81,7.07,19.35,19.35,0,0,1,2.74,10.22,17.42,17.42,0,0,1-2.74,9.68,18.06,18.06,0,0,1-7.79,6.57A27.89,27.89,0,0,1,386.12,403h-8.36v18.44H363.19V364.56h22.93A26,26,0,0,1,397.92,367.12Zm-6.09,22.23a6.46,6.46,0,0,0,1.87-4.87,8.85,8.85,0,0,0-1.91-5.82,7,7,0,0,0-5.67-2.3h-8.36v14.8h8.36C388.67,391.16,390.58,390.56,391.83,389.35Z"/><path class="cls-6" d="M477.57,421.44H463V410.7l1.41-28.91-13.09,39.65h-9.53l-13.09-39.65,1.45,28.91v10.74H415.5V364.56h19.18l11.83,37.74,11.84-37.74h19.22Z"/><rect class="cls-6" x="195.2" y="379.38" width="22" height="22" transform="translate(-184.18 596.58) rotate(-90)"/><rect class="cls-6" x="570.2" y="379.38" width="22" height="22" transform="translate(190.82 971.58) rotate(-90)"/><rect class="cls-6" x="257.74" y="239.6" width="22" height="22" transform="translate(-98.63 242.88) rotate(-41.8)"/><rect class="cls-6" x="507.67" y="519.17" width="22" height="22" transform="translate(-221.36 480.6) rotate(-41.8)"/><rect class="cls-6" x="256.21" y="517.79" width="22" height="22" transform="translate(107.73 1099.39) rotate(-137.58)"/><rect class="cls-6" x="509.19" y="240.98" width="22" height="22" transform="translate(734.2 788.9) rotate(-137.58)"/><rect class="cls-6" x="381.07" y="191.89" width="22" height="22" transform="translate(785.89 402.36) rotate(179.5)"/></g></g></svg>