<svg xmlns="http://www.w3.org/2000/svg" viewBox="0 0 788.6 786"><defs><style>.cls-1{fill:#3b7aa7;}.cls-2{fill:#007090;opacity:0.5;}.cls-3{fill:#02a7c2;}.cls-4{fill:#a3bac3;}.cls-5{fill:#c0d6dd;}</style></defs><title>Asset 13</title><g id="Layer_2" data-name="Layer 2"><g id="Layer_1-2" data-name="Layer 1"><rect class="cls-1" x="2.6" width="786" height="786"/><polygon class="cls-2" points="333.11 786 2.6 786 0 611.69 240.14 212.22 404.77 152.43 552.77 244.43 557.17 402.8 408.11 648.09 416.27 653.02 333.11 786"/><rect class="cls-3" x="371.94" y="470.2" width="45.58" height="188.16" rx="9.51" ry="9.51" transform="translate(1.94 -1.35) rotate(0.2)"/><path class="cls-4" d="M265.22,181.34c-72.5,72-72.91,189.15-.9,261.65s189.15,72.91,261.65.9,72.91-189.15.9-261.65S337.72,109.33,265.22,181.34ZM488.05,405.7a131.2,131.2,0,1,1,.63-185.53A131.2,131.2,0,0,1,488.05,405.7Z"/><path class="cls-5" d="M394.73,200.61c-2.84,0-5.66.11-8.44.32,49.79,4.31,89,52.67,89,111.69h31.4A112,112,0,0,0,394.73,200.61Z"/></g></g></svg>