<svg xmlns="http://www.w3.org/2000/svg" viewBox="0 0 396.63 610.9"><defs><style>.cls-1,.cls-6{fill:#007090;}.cls-2{fill:#a3bac3;}.cls-3{fill:#eaebed;}.cls-4{fill:#c5d86d;}.cls-5{fill:#1b988b;}.cls-6{opacity:0.6;}.cls-7{fill:#fff;}</style></defs><title>Asset 21</title><g id="Layer_2" data-name="Layer 2"><g id="Layer_1-2" data-name="Layer 1"><path class="cls-1" d="M224.53,44.76h0a4.56,4.56,0,0,1,4.56,4.56V71.2a4.56,4.56,0,0,1-4.56,4.56h0a0,0,0,0,1,0,0v-31A0,0,0,0,1,224.53,44.76Z" transform="translate(-0.02 120.46) rotate(-29.74)"/><rect class="cls-2" x="72.81" y="17.25" width="224.99" height="401.98" rx="33.18" ry="33.18" transform="translate(-83.86 120.67) rotate(-29.74)"/><rect class="cls-3" x="82.4" y="47.91" width="197.02" height="325.28" transform="translate(-80.62 117.48) rotate(-29.74)"/><circle class="cls-1" cx="273.07" cy="372.25" r="14.72"/><circle class="cls-4" cx="47.94" cy="140.13" r="8.28"/><rect class="cls-1" x="79.15" y="53.23" width="39" height="4.75" rx="2.37" ry="2.37" transform="translate(-14.59 56.26) rotate(-29.74)"/><circle class="cls-1" cx="75.44" cy="68.86" r="2.38"/><rect class="cls-1" x="73.97" y="101.27" width="176.7" height="153.49" transform="translate(-66.93 103.97) rotate(-29.74)"/><rect class="cls-5" x="57.79" y="108.44" width="73.83" height="6.56" transform="matrix(0.87, -0.5, 0.5, 0.87, -42.95, 61.7)"/><circle class="cls-4" cx="140.1" cy="301.38" r="8.28"/><rect class="cls-1" x="150.66" y="266.62" width="176.7" height="91.14" transform="translate(-123.39 159.7) rotate(-29.74)"/><rect class="cls-5" x="149.95" y="269.69" width="73.83" height="6.56" transform="translate(-110.8 128.66) rotate(-29.74)"/><rect class="cls-6" x="4.05" y="68.71" width="197.02" height="9.42" transform="matrix(0.87, -0.5, 0.5, 0.87, -22.92, 60.55)"/><path class="cls-7" d="M396.63,348.48c-3.93,10.2-6.88,20.73-10.23,31.13q-18.61,57.76-37.08,115.59c-2.46,7.63-6.39,10.43-14.52,10.43q-81.67,0-163.34,0c-6.83,0-6.84-.07-9.16,6.38-2.13,5.91-4.22,11.83-6.34,17.74-1.28,3.57-1.29,3.59,2.62,3.59H334.14a32.28,32.28,0,0,1,4.18.12,10.07,10.07,0,0,1,8.91,10.34,9.78,9.78,0,0,1-9.47,9.39c-2.55.16-5.12.08-7.68.07-2,0-2.22.63-1.05,2.22a33.07,33.07,0,0,1,6.48,17.39c1.11,14.15-4.57,25.15-16.34,32.42a34.49,34.49,0,0,1-52.26-23.17,33.1,33.1,0,0,1,5.79-26.2c.45-.63,1.34-1.23.92-2.1s-1.44-.55-2.21-.55q-34.2,0-68.41,0a4.14,4.14,0,0,0-.89.24c12,19.51,10.69,37.4-8.41,51.22-13.4,9.69-30.41,7.52-42.69-3.81a33.23,33.23,0,0,1-10.78-23.13c-.53-8.94,2.3-16.9,8.31-24.58-3.08,0-5.36.06-7.63,0-7.46-.22-12.07-6.37-9.62-13.42,5.49-15.81,11.27-31.53,17-47.28.6-1.65,1.34-3.48,2.89-4.26,3.07-1.53,2.42-3.55,1.55-6q-20.43-58.64-40.76-117.31c-5.26-15.16-10.55-30.31-15.68-45.51a8.34,8.34,0,0,0-5.45-5.68C76.35,308.21,62,302.48,47.58,296.84c-4.66-1.82-8-4.84-8.57-10-1-9.4,7.35-15.7,16.59-12.21C69.85,280,84,285.66,98.17,291.22c3.14,1.23,6.26,2.49,9.41,3.72a13.24,13.24,0,0,1,8.13,8.52c2.88,8.47,6,16.87,8.75,25.39,1,3.08,2.45,4.07,5.7,4.07q126-.15,252-.17c6.69,0,11.52,2,14.47,8.05ZM169,356.37c-10.46,0-20.92.05-31.38,0-2.54,0-3.38.6-2.43,3.2q3.42,9.33,6.52,18.76c.69,2.07,1.78,3,4,3q27.38-.09,54.74,0c2.42,0,3.28-.94,3.24-3.32-.1-5.92-.19-11.86,0-17.78.12-3.18-1.11-3.92-4.06-3.88C189.41,356.46,179.19,356.37,169,356.37Zm167,0c-9.76,0-19.52,0-29.28,0-2.17,0-3.56.37-3.52,3,.11,6.28.08,12.55,0,18.83,0,2.24.94,3.1,3.13,3.09q26,0,51.95,0a3.22,3.22,0,0,0,3.54-2.59c1.93-6.33,3.91-12.65,6.06-18.91,1-2.78.09-3.46-2.61-3.43C355.47,356.43,345.71,356.37,335.94,356.37Zm-83.05,77.74c7.68,0,15.36-.06,23,0,2.37,0,3.35-.74,3.32-3.2-.09-7.44-.1-14.88,0-22.33,0-2.55-.86-3.47-3.44-3.46q-22.69.12-45.37,0c-2.36,0-3.33.76-3.29,3.22.11,7.45.12,14.89,0,22.33,0,2.58.82,3.48,3.42,3.44C238,434,245.45,434.11,252.89,434.11ZM177.33,405.2c-7.66,0-15.33.08-23,0-2.72,0-3.13.76-2.22,3.24,2.74,7.52,5.33,15.1,7.87,22.69.67,2,1.53,3.09,3.88,3.07q18.28-.15,36.57,0c2.4,0,3.29-.79,3.25-3.22-.1-7.43-.14-14.86,0-22.29.06-2.89-1.16-3.52-3.74-3.48C192.42,405.27,184.88,405.2,177.33,405.2Zm151.06,0c-7.32,0-14.64.06-22,0-2.4,0-3.32.85-3.29,3.26.09,7.44.1,14.87,0,22.31,0,2.58.91,3.44,3.47,3.42q17.08-.15,34.17,0c2.39,0,3.51-.82,4.21-3.1,2.31-7.55,4.72-15.07,7.28-22.54,1-2.82.08-3.41-2.6-3.36C342.57,405.28,335.48,405.2,328.39,405.2Zm-75.23-23.94c7.55,0,15.1,0,22.66,0,2.26,0,3.45-.64,3.42-3.16-.1-6.27-.09-12.55,0-18.82,0-2.35-1.06-3-3.2-2.95q-22.83.07-45.66,0c-2.44,0-3.26.88-3.22,3.27.11,5.92.18,11.85,0,17.77-.12,3.16,1.12,4,4.07,3.93C238.52,381.16,245.84,381.26,253.16,381.26Zm.35,76.37c-7.68,0-15.36.06-23,0-2.35,0-3.37.67-3.32,3.17q.18,8.89,0,17.8c-.05,2.53,1.07,3.16,3.37,3.15q22.68-.08,45.37,0c2.68,0,3.4-1.1,3.35-3.56-.11-5.58-.14-11.17,0-16.75.08-2.83-.81-3.92-3.76-3.85C268.17,457.75,260.84,457.63,253.51,457.63Zm-67.12,0c-4.77,0-9.53.06-14.3,0-2,0-2.78.46-2,2.61q3.39,9.34,6.54,18.77a3.48,3.48,0,0,0,3.83,2.73c6.63-.08,13.25-.09,19.88,0,2.33,0,3.39-.68,3.34-3.18-.11-5.93-.12-11.87,0-17.79,0-2.51-1-3.22-3.33-3.16C195.7,457.72,191,457.63,186.39,457.63Zm133.41,0c-4.53,0-9.06.07-13.58,0-2.27-.05-3.1.87-3.07,3.09.07,6,.06,12.07,0,18.1,0,2.06.83,2.93,2.91,2.92,6.73-.06,13.46,0,20.19,0a3,3,0,0,0,3.28-2.45c2-6.31,4-12.6,6.1-18.87.78-2.34-.14-2.82-2.26-2.78C328.85,457.7,324.33,457.63,319.8,457.64Zm-144.93,133a14.69,14.69,0,0,0,14.88-14.72A15.07,15.07,0,0,0,174.92,561a14.88,14.88,0,0,0-14.8,14.89A14.46,14.46,0,0,0,174.87,590.6Zm111.51-14.8a14.43,14.43,0,0,0,14.74,14.8,14.77,14.77,0,0,0,14.81-14.55A15.1,15.1,0,0,0,301.19,561,14.69,14.69,0,0,0,286.38,575.8Z"/></g></g></svg>